<svg xmlns="http://www.w3.org/2000/svg" xmlns:xlink="http://www.w3.org/1999/xlink" width="1157.4" height="192" viewBox="0 0 1157.4 192"><style>.st0{fill:#aaa}.st1{fill:#f57c00}.st1,.st2{clip-path:url(#SVGID_2_)}.st3{fill:#ffc107}.st4,.st5,.st6{clip-path:url(#SVGID_2_);fill:url(#SVGID_3_)}.st5,.st6{opacity:.2;fill:#fff}.st6{fill:#bf360c}.st7{fill:none}.st8{fill:url(#SVGID_4_)}.st9{fill:url(#SVGID_5_)}.st10{fill:#f57c00}.st10,.st11,.st12,.st13,.st14{clip-path:url(#SVGID_7_)}.st12,.st13,.st14{fill:url(#SVGID_8_)}.st13,.st14{opacity:.2;fill:#fff}.st14{fill:#bf360c}.st15{fill:url(#SVGID_9_)}.st16{fill:url(#SVGID_10_)}</style><g id="logo_x5F_dark_copy"><path id="XMLID_72_" class="st0" d="M220.7 93.6c0-28.9 24.3-52.5 53.3-52.5 16 0 27.4 6.3 36 14.5l-10.1 10.1c-6.1-5.8-14.5-10.2-25.9-10.2-21.1 0-37.6 17-37.6 38.1s16.5 38.1 37.6 38.1c13.7 0 21.5-5.5 26.5-10.5 4.1-4.1 6.8-10 7.8-18H274V88.8h48.3c.5 2.6.8 5.6.8 9 0 10.8-2.9 24.1-12.4 33.5-9.2 9.6-21 14.7-36.6 14.7-29.1 0-53.4-23.5-53.4-52.4z"/><path id="XMLID_69_" class="st0" d="M362 78.5c-18.7 0-33.9 14.2-33.9 33.8 0 19.5 15.2 33.8 33.9 33.8s33.9-14.3 33.9-33.8c0-19.6-15.2-33.8-33.9-33.8zm0 54.2c-10.2 0-19.1-8.4-19.1-20.5 0-12.2 8.8-20.5 19.1-20.5 10.2 0 19.1 8.3 19.1 20.5 0 12.1-8.9 20.5-19.1 20.5z"/><path id="XMLID_66_" class="st0" d="M436 78.5c-18.7 0-33.9 14.2-33.9 33.8 0 19.5 15.2 33.8 33.9 33.8s33.9-14.3 33.9-33.8c0-19.6-15.2-33.8-33.9-33.8zm0 54.2c-10.2 0-19.1-8.4-19.1-20.5 0-12.2 8.8-20.5 19.1-20.5s19.1 8.3 19.1 20.5c0 12.1-8.9 20.5-19.1 20.5z"/><path id="XMLID_63_" class="st0" d="M526.8 80.5V86h-.5c-3.3-4-9.7-7.6-17.8-7.6-16.9 0-32.4 14.8-32.4 33.9 0 18.9 15.5 33.7 32.4 33.7 8.1 0 14.5-3.6 17.8-7.7h.5v4.9c0 12.9-6.9 19.8-18 19.8-9.1 0-14.7-6.5-17-12l-12.9 5.4c3.7 9 13.6 20 30 20 17.4 0 32.1-10.2 32.1-35.2V80.5h-14.2zm-17 52.2c-10.2 0-18.8-8.6-18.8-20.4 0-11.9 8.6-20.6 18.8-20.6 10.1 0 18 8.7 18 20.6.1 11.9-7.9 20.4-18 20.4z"/><path id="XMLID_62_" class="st0" d="M551.2 44.7H566V144h-14.8z"/><path id="XMLID_37_" class="st0" d="M606.7 132.7c-7.6 0-12.9-3.5-16.4-10.2l45.2-18.7-1.5-3.8c-2.8-7.6-11.4-21.5-28.9-21.5-17.4 0-31.9 13.7-31.9 33.8 0 18.9 14.3 33.8 33.5 33.8 15.5 0 24.4-9.5 28.2-15l-11.5-7.7c-3.9 5.6-9.1 9.3-16.7 9.3zm-1.1-41.2c5.9 0 10.9 2.9 12.5 7.2l-30.2 12.5c-.4-13 10.1-19.7 17.7-19.7z"/></g><g id="XMLID_1_"><path id="XMLID_34_" class="st0" d="M696.1 52.3h13.3L744 144h-13.1l-8.8-24.8h-38.5l-9 24.8h-13.1l34.6-91.7zm21.9 55.9l-15-41.3h-.5l-15 41.3H718z"/><path id="XMLID_32_" class="st0" d="M762 90h.5c3.3-5.8 11.3-10.8 19.8-10.8 16 0 23.9 10.9 23.9 26.4V144h-11.8v-36.6C794.5 94.3 788 90 779 90c-10.2 0-16.5 9.7-16.5 19.3V144h-11.8V81.3H762V90z"/><path id="XMLID_29_" class="st0" d="M815.9 125.1c0-14.2 12.8-21.9 27.5-21.9 8.4 0 14.6 2.4 17 3.8v-1.8c0-9.5-7.6-15.2-16.4-15.2-6.5 0-12.8 3.2-15 9.1l-10.8-4.6c2.2-5.8 9.7-15.2 25.5-15.2 15.4 0 27.9 9.2 27.9 26.9V144h-11.3v-8.7h-.5c-3.5 5.2-9.9 10.8-20.6 10.8-12.7-.1-23.3-8-23.3-21zm44.5-8.1s-5-4.1-15-4.1c-12.4 0-17.3 6.7-17.3 12.4 0 6.7 6.9 10 13.1 10 9.4 0 19.2-8.1 19.2-18.3z"/><path id="XMLID_27_" class="st0" d="M884.4 144V52.3h11.8V144h-11.8z"/><path id="XMLID_25_" class="st0" d="M913.8 171.6l14.6-31.6-25.9-58.8h12.8l18.7 45.1h.3l18.2-45.1h12.8L926 171.6h-12.2z"/><path id="XMLID_23_" class="st0" d="M979.9 124.9V92h-11V81.3h11V62.1h11.8v19.2h15.4V92h-15.4v32c0 7 2.9 10.2 8.4 10.2 2.2 0 3.7-.3 5.4-1l4.1 10.1c-2.7 1.2-5.5 1.7-9.5 1.7-13.2 0-20.2-7.3-20.2-20.1z"/><path id="XMLID_20_" class="st0" d="M1015.6 59.6c0-4.6 3.7-8.3 8.3-8.3 4.6 0 8.3 3.7 8.3 8.3 0 4.6-3.7 8.3-8.3 8.3-4.6.1-8.3-3.6-8.3-8.3zm2.4 84.4V81.3h11.8V144H1018z"/><path id="XMLID_18_" class="st0" d="M1039.6 112.6c0-19.1 13.4-33.4 32.3-33.4 15 0 23.7 8.8 27.5 18l-10.8 4.5c-3.1-7.4-8.8-11.8-17.5-11.8-10 0-19.7 9.1-19.7 22.7s9.7 22.7 19.7 22.7c8.7 0 15.1-4.5 18.2-11.8l10.5 4.5c-3.8 9.2-12.9 18-27.9 18-18.8 0-32.3-14.4-32.3-33.4z"/><path id="XMLID_2_" class="st0" d="M1105.3 128.1l10.5-4.4c3.3 7.9 9.5 11.8 17 11.8 7.3 0 12.5-3.6 12.5-8.8 0-3.2-1.9-6.7-8.6-8.3l-12.7-3.1c-5.8-1.4-16.8-6.4-16.8-17.4 0-11.4 11.8-18.7 24.8-18.7 10.9 0 20.4 5 24.2 14.6L1146 98c-2.4-5.9-8.2-8.3-14.3-8.3-6.7 0-12.4 2.9-12.4 8.1 0 4 3.3 6.1 8.3 7.3l12.4 2.9c12.4 2.9 17.3 10.6 17.3 18.3 0 11.1-10 19.7-24.7 19.7-15 0-23.6-8.9-27.3-17.9z"/></g><defs><path id="SVGID_1_" d="M159.8 20h-27.7c-6.7 0-12.2 5.5-12.2 12.2V68H79.8C73.3 68 68 73.3 68 79.9V120H31.9c-6.6 0-11.9 5.3-11.9 11.9v28c0 6.6 5.3 11.9 11.9 12.1h128c6.7 0 12.2-5.5 12.2-12.2V32.2c-.1-6.7-5.6-12.2-12.3-12.2z"/></defs><clipPath id="SVGID_2_"><use xlink:href="#SVGID_1_" overflow="visible"/></clipPath><path class="st1" d="M159.8 20h-27.7c-6.7 0-12.2 5.5-12.2 12.2V172h39.9c6.7 0 12.2-5.5 12.2-12.2V32.2c0-6.7-5.5-12.2-12.2-12.2z"/><g class="st2"><image width="124" height="128" xlink:href="9DD2AD7CCADBCDF2.png" transform="translate(12 60)" overflow="visible" opacity=".2"/><path class="st3" d="M68 79.9V120H31.9c-6.6 0-11.9 5.3-11.9 11.9v28c0 6.6 5.3 11.9 11.9 12.1H120V68H79.9C73.3 68 68 73.3 68 79.9z"/></g><linearGradient id="SVGID_3_" gradientUnits="userSpaceOnUse" x1="94.25" y1="94.25" x2="168.379" y2="168.379"><stop offset="0" stop-color="#bf360c" stop-opacity=".2"/><stop offset="1" stop-color="#bf360c" stop-opacity=".02"/></linearGradient><path class="st4" d="M132.1 172h27.8c6.7 0 12.2-5.5 12.2-12.2v-39.7L120 68v104h12.1z"/><path class="st5" d="M80.1 69H120v-1H80.1c-6.6 0-11.9 5.3-11.9 11.9v1c0-6.6 5.3-11.9 11.9-11.9zM31.9 121H68v-1H31.9c-6.6 0-11.9 5.3-11.9 11.9v1c0-6.6 5.3-11.9 11.9-11.9zM159.8 20h-27.7c-6.7 0-12.2 5.5-12.2 12.2v1c0-6.7 5.5-12.2 12.2-12.2h27.7c6.7 0 12.2 5.5 12.2 12.2v-1c0-6.7-5.5-12.2-12.2-12.2z"/><path class="st6" d="M159.9 171H32c-6.6 0-11.9-5.3-11.9-11.9v1c0 6.6 5.3 11.9 11.9 11.9h127.9c6.7 0 12.2-5.5 12.2-12.2v-1c0 6.7-5.5 12.2-12.2 12.2z"/><g><path class="st7" d="M0 0h192v192H0z"/></g><linearGradient id="SVGID_4_" gradientUnits="userSpaceOnUse" x1="20" y1="96" x2="172" y2="96"><stop offset="0" stop-color="#fff" stop-opacity=".1"/><stop offset="1" stop-color="#fff" stop-opacity="0"/></linearGradient><path class="st8" d="M159.8 20h-27.7c-6.7 0-12.2 5.5-12.2 12.2V68H79.8C73.3 68 68 73.3 68 79.9V120H31.9c-6.6 0-11.9 5.3-11.9 11.9v28c0 6.6 5.3 11.9 11.9 12.1h128c6.7 0 12.2-5.5 12.2-12.2V32.2c-.1-6.7-5.6-12.2-12.3-12.2z"/><linearGradient id="SVGID_5_" gradientUnits="userSpaceOnUse" x1="20" y1="96" x2="172" y2="96"><stop offset="0" stop-color="#fff" stop-opacity=".1"/><stop offset="1" stop-color="#fff" stop-opacity="0"/></linearGradient><path class="st9" d="M159.8 20h-27.7c-6.7 0-12.2 5.5-12.2 12.2V68H79.8C73.3 68 68 73.3 68 79.9V120H31.9c-6.6 0-11.9 5.3-11.9 11.9v28c0 6.6 5.3 11.9 11.9 12.1h128c6.7 0 12.2-5.5 12.2-12.2V32.2c-.1-6.7-5.6-12.2-12.3-12.2z"/></svg>