<!-- Generator: Adobe Illustrator 19.2.1, SVG Export Plug-In  -->
<svg version="1.1"
   xmlns="http://www.w3.org/2000/svg" xmlns:xlink="http://www.w3.org/1999/xlink" xmlns:a="http://ns.adobe.com/AdobeSVGViewerExtensions/3.0/"
   x="0px" y="0px" width="1157.4px" height="192px" viewBox="0 0 1157.4 192" style="enable-background:new 0 0 1157.4 192;"
   xml:space="preserve">
<style type="text/css">
  .st0{fill:#aaa;}
  .st1{clip-path:url(#SVGID_2_);fill:#F57C00;}
  .st2{clip-path:url(#SVGID_2_);}
  .st3{fill:#FFC107;}
  .st4{clip-path:url(#SVGID_2_);fill:url(#SVGID_3_);}
  .st5{opacity:0.2;clip-path:url(#SVGID_2_);fill:#FFFFFF;}
  .st6{opacity:0.2;clip-path:url(#SVGID_2_);fill:#BF360C;}
  .st7{fill:none;}
  .st8{fill:url(#SVGID_4_);}
  .st9{fill:url(#SVGID_5_);}
  .st10{clip-path:url(#SVGID_7_);fill:#F57C00;}
  .st11{clip-path:url(#SVGID_7_);}
  .st12{clip-path:url(#SVGID_7_);fill:url(#SVGID_8_);}
  .st13{opacity:0.2;clip-path:url(#SVGID_7_);fill:#FFFFFF;}
  .st14{opacity:0.2;clip-path:url(#SVGID_7_);fill:#BF360C;}
  .st15{fill:url(#SVGID_9_);}
  .st16{fill:url(#SVGID_10_);}
</style>
<defs>
</defs>
<g id="logo_x5F_dark_copy">
  <g>
    <path id="XMLID_72_" class="st0" d="M220.7,93.6c0-28.9,24.3-52.5,53.3-52.5c16,0,27.4,6.3,36,14.5l-10.1,10.1
      c-6.1-5.8-14.5-10.2-25.9-10.2c-21.1,0-37.6,17-37.6,38.1c0,21.1,16.5,38.1,37.6,38.1c13.7,0,21.5-5.5,26.5-10.5
      c4.1-4.1,6.8-10,7.8-18H274V88.8h48.3c0.5,2.6,0.8,5.6,0.8,9c0,10.8-2.9,24.1-12.4,33.5c-9.2,9.6-21,14.7-36.6,14.7
      C245,146,220.7,122.5,220.7,93.6z"/>
    <path id="XMLID_69_" class="st0" d="M362,78.5c-18.7,0-33.9,14.2-33.9,33.8c0,19.5,15.2,33.8,33.9,33.8
      c18.7,0,33.9-14.3,33.9-33.8C395.9,92.7,380.7,78.5,362,78.5z M362,132.7c-10.2,0-19.1-8.4-19.1-20.5c0-12.2,8.8-20.5,19.1-20.5
      c10.2,0,19.1,8.3,19.1,20.5C381.1,124.3,372.2,132.7,362,132.7z"/>
    <path id="XMLID_66_" class="st0" d="M436,78.5c-18.7,0-33.9,14.2-33.9,33.8c0,19.5,15.2,33.8,33.9,33.8
      c18.7,0,33.9-14.3,33.9-33.8C469.9,92.7,454.7,78.5,436,78.5z M436,132.7c-10.2,0-19.1-8.4-19.1-20.5c0-12.2,8.8-20.5,19.1-20.5
      s19.1,8.3,19.1,20.5C455.1,124.3,446.2,132.7,436,132.7z"/>
    <path id="XMLID_63_" class="st0" d="M526.8,80.5V86h-0.5c-3.3-4-9.7-7.6-17.8-7.6c-16.9,0-32.4,14.8-32.4,33.9
      c0,18.9,15.5,33.7,32.4,33.7c8.1,0,14.5-3.6,17.8-7.7h0.5v4.9c0,12.9-6.9,19.8-18,19.8c-9.1,0-14.7-6.5-17-12l-12.9,5.4
      c3.7,9,13.6,20,30,20c17.4,0,32.1-10.2,32.1-35.2V80.5H526.8z M509.8,132.7c-10.2,0-18.8-8.6-18.8-20.4c0-11.9,8.6-20.6,18.8-20.6
      c10.1,0,18,8.7,18,20.6C527.9,124.2,519.9,132.7,509.8,132.7z"/>
    <rect id="XMLID_62_" x="551.2" y="44.7" class="st0" width="14.8" height="99.3"/>
    <path id="XMLID_37_" class="st0" d="M606.7,132.7c-7.6,0-12.9-3.5-16.4-10.2l45.2-18.7L634,100c-2.8-7.6-11.4-21.5-28.9-21.5
      c-17.4,0-31.9,13.7-31.9,33.8c0,18.9,14.3,33.8,33.5,33.8c15.5,0,24.4-9.5,28.2-15l-11.5-7.7C619.5,129,614.3,132.7,606.7,132.7z
       M605.6,91.5c5.9,0,10.9,2.9,12.5,7.2l-30.2,12.5C587.5,98.2,598,91.5,605.6,91.5z"/>
  </g>
</g>
<g id="XMLID_1_">
  <path id="XMLID_34_" class="st0" d="M696.1,52.3h13.3L744,144h-13.1l-8.8-24.8h-38.5l-9,24.8h-13.1L696.1,52.3z M718,108.2
    l-15-41.3h-0.5l-15,41.3H718z"/>
  <path id="XMLID_32_" class="st0" d="M762,90h0.5c3.3-5.8,11.3-10.8,19.8-10.8c16,0,23.9,10.9,23.9,26.4V144h-11.8v-36.6
    C794.5,94.3,788,90,779,90c-10.2,0-16.5,9.7-16.5,19.3V144h-11.8V81.3H762V90z"/>
  <path id="XMLID_29_" class="st0" d="M815.9,125.1c0-14.2,12.8-21.9,27.5-21.9c8.4,0,14.6,2.4,17,3.8v-1.8c0-9.5-7.6-15.2-16.4-15.2
    c-6.5,0-12.8,3.2-15,9.1l-10.8-4.6c2.2-5.8,9.7-15.2,25.5-15.2c15.4,0,27.9,9.2,27.9,26.9V144h-11.3v-8.7h-0.5
    c-3.5,5.2-9.9,10.8-20.6,10.8C826.5,146,815.9,138.1,815.9,125.1z M860.4,117c0,0-5-4.1-15-4.1c-12.4,0-17.3,6.7-17.3,12.4
    c0,6.7,6.9,10,13.1,10C850.6,135.3,860.4,127.2,860.4,117z"/>
  <path id="XMLID_27_" class="st0" d="M884.4,144V52.3h11.8V144H884.4z"/>
  <path id="XMLID_25_" class="st0" d="M913.8,171.6l14.6-31.6l-25.9-58.8h12.8l18.7,45.1h0.3l18.2-45.1h12.8L926,171.6H913.8z"/>
  <path id="XMLID_23_" class="st0" d="M979.9,124.9V92h-11V81.3h11V62.1h11.8v19.2h15.4V92h-15.4v32c0,7,2.9,10.2,8.4,10.2
    c2.2,0,3.7-0.3,5.4-1l4.1,10.1c-2.7,1.2-5.5,1.7-9.5,1.7C986.9,145,979.9,137.7,979.9,124.9z"/>
  <path id="XMLID_20_" class="st0" d="M1015.6,59.6c0-4.6,3.7-8.3,8.3-8.3c4.6,0,8.3,3.7,8.3,8.3c0,4.6-3.7,8.3-8.3,8.3
    C1019.3,68,1015.6,64.3,1015.6,59.6z M1018,144V81.3h11.8V144H1018z"/>
  <path id="XMLID_18_" class="st0" d="M1039.6,112.6c0-19.1,13.4-33.4,32.3-33.4c15,0,23.7,8.8,27.5,18l-10.8,4.5
    c-3.1-7.4-8.8-11.8-17.5-11.8c-10,0-19.7,9.1-19.7,22.7c0,13.6,9.7,22.7,19.7,22.7c8.7,0,15.1-4.5,18.2-11.8l10.5,4.5
    c-3.8,9.2-12.9,18-27.9,18C1053.1,146,1039.6,131.6,1039.6,112.6z"/>
  <path id="XMLID_2_" class="st0" d="M1105.3,128.1l10.5-4.4c3.3,7.9,9.5,11.8,17,11.8c7.3,0,12.5-3.6,12.5-8.8
    c0-3.2-1.9-6.7-8.6-8.3l-12.7-3.1c-5.8-1.4-16.8-6.4-16.8-17.4c0-11.4,11.8-18.7,24.8-18.7c10.9,0,20.4,5,24.2,14.6l-10.2,4.2
    c-2.4-5.9-8.2-8.3-14.3-8.3c-6.7,0-12.4,2.9-12.4,8.1c0,4,3.3,6.1,8.3,7.3l12.4,2.9c12.4,2.9,17.3,10.6,17.3,18.3
    c0,11.1-10,19.7-24.7,19.7C1117.6,146,1109,137.1,1105.3,128.1z"/>
</g>
<g>
  <g>
    <defs>
      <path id="SVGID_1_" d="M159.8,20h-27.7c-6.7,0-12.2,5.5-12.2,12.2V68l-40.1,0C73.3,68,68,73.3,68,79.9V120H31.9
        c-6.6,0-11.9,5.3-11.9,11.9v28c0,6.6,5.3,11.9,11.9,12.1H120h12.2l0,0h27.7c6.7,0,12.2-5.5,12.2-12.2V32.2
        C172,25.5,166.5,20,159.8,20z"/>
    </defs>
    <clipPath id="SVGID_2_">
      <use xlink:href="#SVGID_1_"  style="overflow:visible;"/>
    </clipPath>
    <path class="st1" d="M159.8,20h-27.7c-6.7,0-12.2,5.5-12.2,12.2v36.2V172v0h12.2l0,0h27.7c6.7,0,12.2-5.5,12.2-12.2V32.2
      C172,25.5,166.5,20,159.8,20z"/>
    <g class="st2">

        <image style="overflow:visible;opacity:0.2;" width="124" height="128" xlink:href="9DD2AD7CCADBCDF2.png"  transform="matrix(1 0 0 1 12 60)">
      </image>
      <g>
        <path class="st3" d="M68,79.9V120H31.9c-6.6,0-11.9,5.3-11.9,11.9v28c0,6.6,5.3,11.9,11.9,12.1H120V68l-40.1,0
          C73.3,68,68,73.3,68,79.9z"/>
      </g>
    </g>
    <linearGradient id="SVGID_3_" gradientUnits="userSpaceOnUse" x1="94.2501" y1="94.2501" x2="168.3787" y2="168.3788">
      <stop  offset="0" style="stop-color:#BF360C;stop-opacity:0.2"/>
      <stop  offset="1" style="stop-color:#BF360C;stop-opacity:2.000000e-02"/>
    </linearGradient>
    <path class="st4" d="M132.1,172l27.8,0c6.7,0,12.2-5.5,12.2-12.2v-39.7L120,68v104H132.1z"/>
    <path class="st5" d="M80.1,69l39.9,0v-1l-39.9,0c-6.6,0-11.9,5.3-11.9,11.9v1C68.2,74.3,73.5,69,80.1,69z"/>
    <path class="st5" d="M31.9,121H68v-1H31.9c-6.6,0-11.9,5.3-11.9,11.9v1C20,126.3,25.3,121,31.9,121z"/>
    <path class="st5" d="M159.8,20h-27.7c-6.7,0-12.2,5.5-12.2,12.2v1c0-6.7,5.5-12.2,12.2-12.2h27.7c6.7,0,12.2,5.5,12.2,12.2v-1
      C172,25.5,166.5,20,159.8,20z"/>
    <path class="st6" d="M159.9,171h-27.8c0,0,0,0,0,0h-12.2v0H32c-6.6,0-11.9-5.3-11.9-11.9v1c0,6.6,5.3,11.9,11.9,11.9h87.9v0h12.2
      c0,0,0,0,0,0h27.8c6.7,0,12.2-5.5,12.2-12.2v-1C172.1,165.5,166.6,171,159.9,171z"/>
  </g>
  <g>
    <rect class="st7" width="192" height="192"/>
  </g>
  <linearGradient id="SVGID_4_" gradientUnits="userSpaceOnUse" x1="20" y1="96" x2="172" y2="96">
    <stop  offset="0" style="stop-color:#FFFFFF;stop-opacity:0.1"/>
    <stop  offset="1" style="stop-color:#FFFFFF;stop-opacity:0"/>
  </linearGradient>
  <path class="st8" d="M159.8,20h-27.7c-6.7,0-12.2,5.5-12.2,12.2V68l-40.1,0C73.3,68,68,73.3,68,79.9V120H31.9
    c-6.6,0-11.9,5.3-11.9,11.9v28c0,6.6,5.3,11.9,11.9,12.1H120h12.2l0,0h27.7c6.7,0,12.2-5.5,12.2-12.2V32.2
    C172,25.5,166.5,20,159.8,20z"/>
  <linearGradient id="SVGID_5_" gradientUnits="userSpaceOnUse" x1="20" y1="96" x2="172" y2="96">
    <stop  offset="0" style="stop-color:#FFFFFF;stop-opacity:0.1"/>
    <stop  offset="1" style="stop-color:#FFFFFF;stop-opacity:0"/>
  </linearGradient>
  <path class="st9" d="M159.8,20h-27.7c-6.7,0-12.2,5.5-12.2,12.2V68l-40.1,0C73.3,68,68,73.3,68,79.9V120H31.9
    c-6.6,0-11.9,5.3-11.9,11.9v28c0,6.6,5.3,11.9,11.9,12.1H120h12.2l0,0h27.7c6.7,0,12.2-5.5,12.2-12.2V32.2
    C172,25.5,166.5,20,159.8,20z"/>
</g>
</svg>
